<?xml version="1.0" encoding="UTF-8"?>
<svg width="536px" height="73px" viewBox="0 0 536 73" version="1.1" xmlns="http://www.w3.org/2000/svg" xmlns:xlink="http://www.w3.org/1999/xlink">
    <title>编组</title>
    <g id="页面-1" stroke="none" stroke-width="1" fill="none" fill-rule="evenodd">
        <g id="编组" transform="translate(0.511845, 0.072596)">
            <polygon id="路径" fill="#FFBB25" points="43.7329535 0 98.4738707 0.235472511 54.6937644 60.2354725 -1.42108547e-13 60.2354725"></polygon>
            <path d="M101.646154,15.2739482 C101.966776,14.8242593 102.591236,14.7196297 103.040925,15.0402514 C103.456023,15.33621 103.577105,15.8910605 103.341099,16.3283634 L103.274622,16.4350223 L64.506,70.809 L434.14033,70.8097828 C434.653166,70.8097828 435.075837,71.1958229 435.133603,71.6931616 L435.14033,71.8097828 C435.14033,72.3226186 434.75429,72.7452899 434.256951,72.803055 L434.14033,72.8097828 L62.5650618,72.8097828 C61.7907965,72.8097828 61.3247027,71.9766015 61.689769,71.3254295 L61.750828,71.2292457 L101.646154,15.2739482 Z" id="路径-2" fill="#FFBB25" fill-rule="nonzero"></path>
            <polygon id="路径-3" fill="#FFBB25" points="128.600554 0 85.1274116 60.2354725 481.306808 60.2354725 535.296757 0"></polygon>
            <g id="air-posting-空运" transform="translate(125.408155, 7.183404)" fill="#7F2234" fill-rule="nonzero">
                <path d="M12.144,14.256 C9.072,14.256 6.576,14.784 4.752,15.936 C2.64,17.184 1.296,19.2 0.768,21.888 L5.808,22.32 C6.096,20.928 6.816,19.92 7.968,19.248 C8.928,18.672 10.224,18.384 11.808,18.384 C15.552,18.384 17.424,20.112 17.424,23.568 L17.424,24.576 L11.856,24.72 C8.208,24.816 5.328,25.536 3.312,26.976 C1.104,28.464 0,30.624 0,33.408 C0,35.472 0.768,37.152 2.352,38.448 C3.792,39.744 5.808,40.416 8.4,40.416 C10.608,40.416 12.528,39.984 14.16,39.216 C15.6,38.496 16.8,37.488 17.76,36.24 L17.76,39.744 L22.464,39.744 L22.464,23.904 C22.464,20.88 21.696,18.576 20.208,16.992 C18.48,15.168 15.792,14.256 12.144,14.256 Z M17.424,28.272 L17.424,29.712 C17.424,31.632 16.608,33.264 15.072,34.56 C13.536,35.856 11.712,36.528 9.552,36.528 C8.256,36.528 7.2,36.192 6.432,35.568 C5.616,34.944 5.232,34.176 5.232,33.216 C5.232,30.144 7.536,28.512 12.192,28.416 L17.424,28.272 Z" id="形状"></path>
                <path d="M31.872,4.992 C30.864,4.992 30.048,5.28 29.376,5.952 C28.704,6.576 28.368,7.392 28.368,8.4 C28.368,9.36 28.704,10.224 29.376,10.896 C30.048,11.52 30.864,11.856 31.872,11.856 C32.832,11.856 33.696,11.52 34.368,10.896 C35.04,10.224 35.424,9.408 35.424,8.4 C35.424,7.392 35.088,6.576 34.416,5.952 C33.744,5.28 32.88,4.992 31.872,4.992 Z M29.328,14.928 L29.328,39.744 L34.416,39.744 L34.416,14.928 L29.328,14.928 Z" id="形状"></path>
                <path d="M52.8,14.256 C51.264,14.256 49.92,14.688 48.768,15.648 C47.808,16.32 46.992,17.328 46.368,18.672 L46.368,14.928 L41.28,14.928 L41.28,39.744 L46.368,39.744 L46.368,26.592 C46.368,24.432 46.992,22.656 48.288,21.312 C49.488,20.064 50.88,19.44 52.416,19.44 C53.568,19.44 54.768,19.584 56.016,19.968 L56.016,14.88 C55.152,14.448 54.048,14.256 52.8,14.256 Z" id="路径"></path>
                <path d="M87.552,14.256 C84.192,14.256 81.6,15.456 79.872,17.904 L79.872,14.928 L75.12,14.928 L75.12,49.248 L80.208,49.248 L80.208,36.096 C82.224,38.976 84.72,40.416 87.792,40.416 C91.344,40.416 94.176,39.12 96.192,36.528 C98.064,34.128 99.024,31.104 99.024,27.456 C99.024,23.616 98.064,20.544 96.144,18.144 C94.032,15.552 91.2,14.256 87.552,14.256 Z M86.784,18.384 C89.28,18.384 91.104,19.248 92.304,21.072 C93.264,22.608 93.792,24.72 93.792,27.456 C93.792,30.192 93.216,32.304 92.16,33.84 C90.96,35.472 89.136,36.288 86.64,36.288 C84.72,36.288 83.184,35.52 82.032,34.032 C80.688,32.4 80.064,30.24 80.064,27.6 L80.064,27.168 C80.064,24.624 80.592,22.56 81.648,21.024 C82.848,19.248 84.576,18.384 86.784,18.384 Z" id="形状"></path>
                <path d="M115.248,14.256 C111.504,14.256 108.48,15.504 106.224,18 C103.968,20.448 102.864,23.568 102.864,27.36 C102.864,31.104 103.968,34.224 106.176,36.624 C108.48,39.12 111.504,40.416 115.248,40.416 C118.992,40.416 122.016,39.12 124.32,36.624 C126.528,34.224 127.632,31.104 127.632,27.36 C127.632,23.568 126.48,20.448 124.272,18 C122.016,15.504 118.992,14.256 115.248,14.256 Z M115.248,18.432 C117.6,18.432 119.424,19.344 120.768,21.216 C121.92,22.8 122.496,24.864 122.496,27.36 C122.496,29.808 121.92,31.824 120.768,33.456 C119.424,35.28 117.6,36.24 115.248,36.24 C112.896,36.24 111.072,35.28 109.776,33.456 C108.624,31.872 108.096,29.856 108.096,27.36 C108.096,24.864 108.624,22.8 109.776,21.216 C111.072,19.344 112.896,18.432 115.248,18.432 Z" id="形状"></path>
                <path d="M141.744,14.256 C138.768,14.256 136.32,14.88 134.448,16.176 C132.576,17.424 131.664,19.2 131.664,21.456 C131.664,23.568 132.624,25.248 134.544,26.448 C135.696,27.216 137.76,27.936 140.688,28.608 C143.232,29.184 144.912,29.664 145.68,30.048 C147.12,30.72 147.888,31.68 147.888,32.88 C147.888,35.088 145.872,36.24 141.936,36.24 C140.016,36.24 138.672,35.904 137.808,35.28 C136.944,34.608 136.32,33.408 136.032,31.728 L131.04,31.728 C131.616,37.488 135.264,40.416 142.08,40.416 C149.424,40.416 153.12,37.776 153.12,32.544 C153.12,30.336 152.112,28.608 150.144,27.36 C148.8,26.496 146.688,25.68 143.856,25.008 C141.36,24.384 139.728,23.904 138.864,23.52 C137.52,22.896 136.848,22.176 136.848,21.312 C136.848,20.352 137.28,19.584 138.192,19.104 C138.96,18.624 140.112,18.432 141.648,18.432 C143.376,18.432 144.72,18.72 145.584,19.296 C146.4,19.824 146.976,20.736 147.36,22.08 L152.304,22.08 C151.728,16.848 148.176,14.256 141.744,14.256 Z" id="路径"></path>
                <path d="M164.976,6.912 L159.888,9.024 L159.888,14.928 L155.28,14.928 L155.28,19.152 L159.888,19.152 L159.888,33.552 C159.888,35.52 160.32,37.008 161.28,38.064 C162.24,39.168 163.824,39.744 165.936,39.744 L170.016,39.744 L170.016,35.52 L166.752,35.52 C166.128,35.52 165.696,35.328 165.408,35.04 C165.12,34.704 164.976,34.224 164.976,33.552 L164.976,19.152 L170.64,19.152 L170.64,14.928 L164.976,14.928 L164.976,6.912 Z" id="路径"></path>
                <path d="M178.32,4.992 C177.312,4.992 176.496,5.28 175.824,5.952 C175.152,6.576 174.816,7.392 174.816,8.4 C174.816,9.36 175.152,10.224 175.824,10.896 C176.496,11.52 177.312,11.856 178.32,11.856 C179.28,11.856 180.144,11.52 180.816,10.896 C181.488,10.224 181.872,9.408 181.872,8.4 C181.872,7.392 181.536,6.576 180.864,5.952 C180.192,5.28 179.328,4.992 178.32,4.992 Z M175.776,14.928 L175.776,39.744 L180.864,39.744 L180.864,14.928 L175.776,14.928 Z" id="形状"></path>
                <path d="M200.304,14.256 C198.768,14.256 197.376,14.544 196.128,15.216 C194.88,15.84 193.776,16.752 192.816,18 L192.816,14.928 L187.728,14.928 L187.728,39.744 L192.816,39.744 L192.816,24.816 C193.008,22.8 193.728,21.216 194.88,20.064 C195.936,19.008 197.232,18.528 198.672,18.528 C202.512,18.528 204.48,20.64 204.48,24.864 L204.48,39.744 L209.568,39.744 L209.568,24.432 C209.568,17.616 206.448,14.256 200.304,14.256 Z" id="路径"></path>
                <path d="M225.696,14.256 C222.336,14.256 219.6,15.408 217.536,17.76 C215.424,20.064 214.416,23.04 214.416,26.784 C214.416,30.528 215.424,33.504 217.536,35.76 C219.6,38.016 222.336,39.168 225.696,39.168 C228.96,39.168 231.456,37.776 233.28,35.04 L233.28,38.88 C233.28,43.536 231.12,45.888 226.8,45.888 C224.784,45.888 223.296,45.552 222.384,44.976 C221.424,44.352 220.848,43.296 220.56,41.856 L215.472,41.856 C215.952,44.592 217.056,46.608 218.88,47.952 C220.704,49.248 223.344,49.92 226.8,49.92 C234.48,49.92 238.368,45.984 238.368,38.112 L238.368,14.928 L233.28,14.928 L233.28,18.24 C231.456,15.552 228.96,14.256 225.696,14.256 Z M226.464,18.384 C228.624,18.384 230.304,19.104 231.552,20.64 C232.704,22.128 233.328,24.192 233.328,26.784 C233.328,29.328 232.704,31.344 231.552,32.832 C230.304,34.272 228.624,34.992 226.464,34.992 C223.968,34.992 222.192,34.128 221.088,32.496 C220.128,31.104 219.648,29.184 219.648,26.784 C219.648,24.144 220.224,22.08 221.472,20.64 C222.624,19.104 224.304,18.384 226.464,18.384 Z" id="形状"></path>
                <path d="M264.672,24.48 L264.672,28.8 L278.88,28.8 L278.88,38.784 L260.64,38.784 L260.64,43.152 L301.872,43.152 L301.872,38.784 L283.488,38.784 L283.488,28.8 L297.84,28.8 L297.84,24.48 L264.672,24.48 Z M285.984,11.328 L283.584,14.88 C288.192,16.944 292.656,19.776 297.024,23.376 L299.616,19.488 C295.488,16.272 290.976,13.536 285.984,11.328 Z M275.424,11.616 C271.968,14.688 267.6,17.184 262.32,19.104 L264.288,23.232 C269.808,21.024 274.464,18.24 278.256,14.88 L275.424,11.616 Z M281.952,0 L276.96,0.768 C277.632,1.968 278.304,3.312 278.88,4.752 L260.544,4.752 L260.544,14.928 L265.2,14.928 L265.2,8.976 L297.312,8.976 L297.312,14.976 L301.968,14.976 L301.968,4.752 L283.632,4.752 C283.056,3.024 282.528,1.44 281.952,0 Z" id="形状"></path>
                <path d="M311.712,0.768 L308.544,3.792 C312,6.576 314.688,9.12 316.56,11.52 L319.872,8.304 C317.616,5.808 314.88,3.312 311.712,0.768 Z M339.216,43.872 L350.256,43.872 L351.408,39.36 C350.064,39.456 348.192,39.552 345.792,39.6 C343.344,39.648 340.944,39.696 338.592,39.696 C334.944,39.696 331.776,39.648 329.088,39.6 C326.304,39.504 324.192,39.072 322.8,38.4 C321.648,37.776 320.496,36.816 319.392,35.52 C319.152,35.232 318.96,35.04 318.768,34.848 L318.768,16.656 L308.016,16.656 L308.016,20.88 L314.496,20.88 L314.496,34.464 C312.576,35.424 310.368,37.872 307.968,41.76 L311.328,44.88 C313.776,40.56 315.504,38.4 316.512,38.4 C317.088,38.4 317.664,38.784 318.288,39.6 C319.728,41.232 321.36,42.384 323.28,42.96 C325.248,43.44 327.744,43.728 330.816,43.776 C333.84,43.824 336.624,43.872 339.216,43.872 Z M324.768,2.736 L324.768,6.96 L347.232,6.96 L347.232,2.736 L324.768,2.736 Z M321.744,13.584 L321.744,17.904 L331.392,17.904 C327.792,26.592 325.008,31.248 323.088,31.824 L324.24,35.76 C332.592,34.896 339.408,33.84 344.592,32.544 C345.072,33.888 345.552,35.232 346.032,36.672 L350.112,35.616 C348.144,29.952 345.888,24.96 343.392,20.592 L339.696,21.792 C340.848,23.952 341.952,26.208 343.008,28.608 C339.312,29.568 334.8,30.336 329.424,31.008 C331.488,27.984 333.648,23.616 335.952,17.904 L350.736,17.904 L350.736,13.584 L321.744,13.584 Z" id="形状"></path>
            </g>
        </g>
    </g>
</svg>