<?xml version="1.0" encoding="UTF-8"?>
<svg width="536px" height="73px" viewBox="0 0 536 73" version="1.1" xmlns="http://www.w3.org/2000/svg" xmlns:xlink="http://www.w3.org/1999/xlink">
    <title>编组</title>
    <g id="页面-1" stroke="none" stroke-width="1" fill="none" fill-rule="evenodd">
        <g id="编组" transform="translate(0.511845, 0.072596)">
            <polygon id="路径" fill="#FFBB25" points="43.7329535 0 98.4738707 0.235472511 54.6937644 60.2354725 -8.52651283e-14 60.2354725"></polygon>
            <path d="M101.646154,15.2739482 C101.966776,14.8242593 102.591236,14.7196297 103.040925,15.0402514 C103.456023,15.33621 103.577105,15.8910605 103.341099,16.3283634 L103.274622,16.4350223 L64.506,70.809 L434.14033,70.8097828 C434.653166,70.8097828 435.075837,71.1958229 435.133603,71.6931616 L435.14033,71.8097828 C435.14033,72.3226186 434.75429,72.7452899 434.256951,72.803055 L434.14033,72.8097828 L62.5650618,72.8097828 C61.7907965,72.8097828 61.3247027,71.9766015 61.689769,71.3254295 L61.750828,71.2292457 L101.646154,15.2739482 Z" id="路径-2" fill="#FFBB25" fill-rule="nonzero"></path>
            <polygon id="路径-3" fill="#FFBB25" points="128.600554 0 85.1274116 60.2354725 481.306808 60.2354725 535.296757 0"></polygon>
            <g id="sea-shipping-海运" transform="translate(129.748155, 11.109404)" fill="#7F2234" fill-rule="nonzero">
                <path d="M9.366,12.516 C6.762,12.516 4.62,13.062 2.982,14.196 C1.344,15.288 0.546,16.842 0.546,18.816 C0.546,20.664 1.386,22.134 3.066,23.184 C4.074,23.856 5.88,24.486 8.442,25.074 C10.668,25.578 12.138,25.998 12.81,26.334 C14.07,26.922 14.742,27.762 14.742,28.812 C14.742,30.744 12.978,31.752 9.534,31.752 C7.854,31.752 6.678,31.458 5.922,30.912 C5.166,30.324 4.62,29.274 4.368,27.804 L0,27.804 C0.504,32.844 3.696,35.406 9.66,35.406 C16.086,35.406 19.32,33.096 19.32,28.518 C19.32,26.586 18.438,25.074 16.716,23.982 C15.54,23.226 13.692,22.512 11.214,21.924 C9.03,21.378 7.602,20.958 6.846,20.622 C5.67,20.076 5.082,19.446 5.082,18.69 C5.082,17.85 5.46,17.178 6.258,16.758 C6.93,16.338 7.938,16.17 9.282,16.17 C10.794,16.17 11.97,16.422 12.726,16.926 C13.44,17.388 13.944,18.186 14.28,19.362 L18.606,19.362 C18.102,14.784 14.994,12.516 9.366,12.516 Z" id="路径"></path>
                <path d="M32.298,12.516 C29.106,12.516 26.544,13.608 24.696,15.834 C22.764,18.018 21.84,20.706 21.84,23.94 C21.84,27.51 22.848,30.324 24.864,32.424 C26.712,34.398 29.274,35.406 32.466,35.406 C35.364,35.406 37.758,34.566 39.648,32.928 C41.16,31.584 42.126,29.862 42.63,27.846 L38.178,27.846 C37.59,29.106 36.96,30.072 36.204,30.66 C35.238,31.374 33.978,31.752 32.424,31.752 C30.66,31.752 29.274,31.164 28.266,30.072 C27.258,28.938 26.712,27.3 26.544,25.2 L43.008,25.2 C42.966,21.336 42.084,18.312 40.404,16.128 C38.556,13.692 35.826,12.516 32.298,12.516 Z M32.424,16.17 C35.952,16.17 37.926,18.06 38.346,21.84 L26.628,21.84 C26.88,19.992 27.51,18.606 28.434,17.64 C29.442,16.632 30.744,16.17 32.424,16.17 Z" id="形状"></path>
                <path d="M56.574,12.516 C53.886,12.516 51.702,12.978 50.106,13.986 C48.258,15.078 47.082,16.842 46.62,19.194 L51.03,19.572 C51.282,18.354 51.912,17.472 52.92,16.884 C53.76,16.38 54.894,16.128 56.28,16.128 C59.556,16.128 61.194,17.64 61.194,20.664 L61.194,21.546 L56.322,21.672 C53.13,21.756 50.61,22.386 48.846,23.646 C46.914,24.948 45.948,26.838 45.948,29.274 C45.948,31.08 46.62,32.55 48.006,33.684 C49.266,34.818 51.03,35.406 53.298,35.406 C55.23,35.406 56.91,35.028 58.338,34.356 C59.598,33.726 60.648,32.844 61.488,31.752 L61.488,34.818 L65.604,34.818 L65.604,20.958 C65.604,18.312 64.932,16.296 63.63,14.91 C62.118,13.314 59.766,12.516 56.574,12.516 Z M61.194,24.78 L61.194,26.04 C61.194,27.72 60.48,29.148 59.136,30.282 C57.792,31.416 56.196,32.004 54.306,32.004 C53.172,32.004 52.248,31.71 51.576,31.164 C50.862,30.618 50.526,29.946 50.526,29.106 C50.526,26.418 52.542,24.99 56.616,24.906 L61.194,24.78 Z" id="形状"></path>
                <path d="M92.778,12.516 C90.174,12.516 88.032,13.062 86.394,14.196 C84.756,15.288 83.958,16.842 83.958,18.816 C83.958,20.664 84.798,22.134 86.478,23.184 C87.486,23.856 89.292,24.486 91.854,25.074 C94.08,25.578 95.55,25.998 96.222,26.334 C97.482,26.922 98.154,27.762 98.154,28.812 C98.154,30.744 96.39,31.752 92.946,31.752 C91.266,31.752 90.09,31.458 89.334,30.912 C88.578,30.324 88.032,29.274 87.78,27.804 L83.412,27.804 C83.916,32.844 87.108,35.406 93.072,35.406 C99.498,35.406 102.732,33.096 102.732,28.518 C102.732,26.586 101.85,25.074 100.128,23.982 C98.952,23.226 97.104,22.512 94.626,21.924 C92.442,21.378 91.014,20.958 90.258,20.622 C89.082,20.076 88.494,19.446 88.494,18.69 C88.494,17.85 88.872,17.178 89.67,16.758 C90.342,16.338 91.35,16.17 92.694,16.17 C94.206,16.17 95.382,16.422 96.138,16.926 C96.852,17.388 97.356,18.186 97.692,19.362 L102.018,19.362 C101.514,14.784 98.406,12.516 92.778,12.516 Z" id="路径"></path>
                <path d="M106.512,4.242 L106.512,34.818 L110.964,34.818 L110.964,22.638 C110.964,20.748 111.426,19.194 112.392,17.976 C113.316,16.758 114.534,16.17 116.046,16.17 C117.726,16.17 119.028,16.674 119.868,17.724 C120.624,18.732 121.044,20.16 121.044,22.092 L121.044,34.818 L125.496,34.818 L125.496,21.336 C125.496,18.48 124.866,16.296 123.606,14.826 C122.262,13.272 120.288,12.516 117.684,12.516 C116.298,12.516 115.08,12.768 113.988,13.356 C112.77,13.944 111.762,14.91 110.964,16.17 L110.964,4.242 L106.512,4.242 Z" id="路径"></path>
                <path d="M133.686,4.41 C132.804,4.41 132.09,4.662 131.502,5.25 C130.914,5.796 130.62,6.51 130.62,7.392 C130.62,8.232 130.914,8.988 131.502,9.576 C132.09,10.122 132.804,10.416 133.686,10.416 C134.526,10.416 135.282,10.122 135.87,9.576 C136.458,8.988 136.794,8.274 136.794,7.392 C136.794,6.51 136.5,5.796 135.912,5.25 C135.324,4.662 134.568,4.41 133.686,4.41 Z M131.46,13.104 L131.46,34.818 L135.912,34.818 L135.912,13.104 L131.46,13.104 Z" id="形状"></path>
                <path d="M152.796,12.516 C149.856,12.516 147.588,13.566 146.076,15.708 L146.076,13.104 L141.918,13.104 L141.918,43.134 L146.37,43.134 L146.37,31.626 C148.134,34.146 150.318,35.406 153.006,35.406 C156.114,35.406 158.592,34.272 160.356,32.004 C161.994,29.904 162.834,27.258 162.834,24.066 C162.834,20.706 161.994,18.018 160.314,15.918 C158.466,13.65 155.988,12.516 152.796,12.516 Z M152.124,16.128 C154.308,16.128 155.904,16.884 156.954,18.48 C157.794,19.824 158.256,21.672 158.256,24.066 C158.256,26.46 157.752,28.308 156.828,29.652 C155.778,31.08 154.182,31.794 151.998,31.794 C150.318,31.794 148.974,31.122 147.966,29.82 C146.79,28.392 146.244,26.502 146.244,24.192 L146.244,23.814 C146.244,21.588 146.706,19.782 147.63,18.438 C148.68,16.884 150.192,16.128 152.124,16.128 Z" id="形状"></path>
                <path d="M177.912,12.516 C174.972,12.516 172.704,13.566 171.192,15.708 L171.192,13.104 L167.034,13.104 L167.034,43.134 L171.486,43.134 L171.486,31.626 C173.25,34.146 175.434,35.406 178.122,35.406 C181.23,35.406 183.708,34.272 185.472,32.004 C187.11,29.904 187.95,27.258 187.95,24.066 C187.95,20.706 187.11,18.018 185.43,15.918 C183.582,13.65 181.104,12.516 177.912,12.516 Z M177.24,16.128 C179.424,16.128 181.02,16.884 182.07,18.48 C182.91,19.824 183.372,21.672 183.372,24.066 C183.372,26.46 182.868,28.308 181.944,29.652 C180.894,31.08 179.298,31.794 177.114,31.794 C175.434,31.794 174.09,31.122 173.082,29.82 C171.906,28.392 171.36,26.502 171.36,24.192 L171.36,23.814 C171.36,21.588 171.822,19.782 172.746,18.438 C173.796,16.884 175.308,16.128 177.24,16.128 Z" id="形状"></path>
                <path d="M195.3,4.41 C194.418,4.41 193.704,4.662 193.116,5.25 C192.528,5.796 192.234,6.51 192.234,7.392 C192.234,8.232 192.528,8.988 193.116,9.576 C193.704,10.122 194.418,10.416 195.3,10.416 C196.14,10.416 196.896,10.122 197.484,9.576 C198.072,8.988 198.408,8.274 198.408,7.392 C198.408,6.51 198.114,5.796 197.526,5.25 C196.938,4.662 196.182,4.41 195.3,4.41 Z M193.074,13.104 L193.074,34.818 L197.526,34.818 L197.526,13.104 L193.074,13.104 Z" id="形状"></path>
                <path d="M214.536,12.516 C213.192,12.516 211.974,12.768 210.882,13.356 C209.79,13.902 208.824,14.7 207.984,15.792 L207.984,13.104 L203.532,13.104 L203.532,34.818 L207.984,34.818 L207.984,21.756 C208.152,19.992 208.782,18.606 209.79,17.598 C210.714,16.674 211.848,16.254 213.108,16.254 C216.468,16.254 218.19,18.102 218.19,21.798 L218.19,34.818 L222.642,34.818 L222.642,21.42 C222.642,15.456 219.912,12.516 214.536,12.516 Z" id="路径"></path>
                <path d="M236.754,12.516 C233.814,12.516 231.42,13.524 229.614,15.582 C227.766,17.598 226.884,20.202 226.884,23.478 C226.884,26.754 227.766,29.358 229.614,31.332 C231.42,33.306 233.814,34.314 236.754,34.314 C239.61,34.314 241.794,33.096 243.39,30.702 L243.39,34.062 C243.39,38.136 241.5,40.194 237.72,40.194 C235.956,40.194 234.654,39.9 233.856,39.396 C233.016,38.85 232.512,37.926 232.26,36.666 L227.808,36.666 C228.228,39.06 229.194,40.824 230.79,42 C232.386,43.134 234.696,43.722 237.72,43.722 C244.44,43.722 247.842,40.278 247.842,33.39 L247.842,13.104 L243.39,13.104 L243.39,16.002 C241.794,13.65 239.61,12.516 236.754,12.516 Z M237.426,16.128 C239.316,16.128 240.786,16.758 241.878,18.102 C242.886,19.404 243.432,21.21 243.432,23.478 C243.432,25.704 242.886,27.468 241.878,28.77 C240.786,30.03 239.316,30.66 237.426,30.66 C235.242,30.66 233.688,29.904 232.722,28.476 C231.882,27.258 231.462,25.578 231.462,23.478 C231.462,21.168 231.966,19.362 233.058,18.102 C234.066,16.758 235.536,16.128 237.426,16.128 Z" id="形状"></path>
                <path d="M282.744,7.056 L303.534,7.056 L303.534,3.36 L284.76,3.36 C285.138,2.562 285.516,1.722 285.894,0.84 L281.904,0 C280.014,4.494 277.746,8.022 275.058,10.584 L277.578,13.65 C278.25,12.978 278.922,12.222 279.678,11.382 C279.594,14.028 279.384,16.716 279.09,19.488 L274.806,19.488 L274.806,23.184 L278.67,23.184 C278.25,26.418 277.662,29.694 276.99,33.012 L296.898,33.012 C296.814,33.348 296.772,33.558 296.73,33.684 C296.352,34.524 295.764,35.112 295.008,35.406 C294.252,35.574 293.328,35.7 292.32,35.7 C290.976,35.7 289.422,35.616 287.742,35.49 L288.876,39.102 C290.388,39.102 291.69,39.06 292.866,39.06 C295.134,39.06 296.814,38.724 297.99,38.094 C299.166,37.464 299.964,36.456 300.384,35.07 C300.468,34.734 300.594,34.062 300.678,33.012 L304.122,33.012 L304.122,29.61 L300.972,29.61 C301.056,27.888 301.182,25.746 301.308,23.184 L304.794,23.184 L304.794,19.488 L301.476,19.488 C301.56,16.674 301.686,13.44 301.812,9.786 L280.896,9.786 C281.526,8.946 282.156,8.064 282.744,7.056 Z M282.45,23.184 L287.91,23.184 L285.726,25.326 C287.826,26.796 289.464,28.224 290.724,29.61 L281.4,29.61 C281.82,27.636 282.156,25.494 282.45,23.184 Z M290.976,29.61 L293.412,27.216 C292.11,25.872 290.514,24.528 288.624,23.184 L297.528,23.184 C297.402,25.788 297.276,27.93 297.192,29.61 L290.976,29.61 Z M297.654,19.488 L291.564,19.488 L293.874,17.22 C292.446,15.918 290.682,14.616 288.624,13.356 L286.146,15.792 C288.162,17.052 289.8,18.312 291.06,19.488 L282.87,19.488 C283.038,17.514 283.164,15.414 283.29,13.23 L297.906,13.23 L297.654,19.488 Z M269.598,0.84 L266.742,3.57 C269.472,5.502 271.572,7.266 273.084,8.946 L275.94,6.09 C274.218,4.326 272.118,2.562 269.598,0.84 Z M268.926,11.046 L266.07,13.818 C268.842,15.792 270.942,17.598 272.454,19.278 L275.268,16.464 C273.546,14.616 271.446,12.81 268.926,11.046 Z M272.412,23.562 C270.69,28.14 268.674,32.592 266.364,36.96 L270.06,38.598 C272.202,34.314 274.134,29.778 275.856,24.906 L272.412,23.562 Z" id="形状"></path>
                <path d="M312.018,0.714 L309.246,3.36 C312.27,5.796 314.622,8.022 316.26,10.122 L319.158,7.308 C317.184,5.124 314.79,2.94 312.018,0.714 Z M336.084,38.43 L345.744,38.43 L346.752,34.482 C345.576,34.566 343.938,34.65 341.838,34.692 C339.696,34.734 337.596,34.776 335.538,34.776 C332.346,34.776 329.574,34.734 327.222,34.692 C324.786,34.608 322.938,34.23 321.72,33.642 C320.712,33.096 319.704,32.256 318.738,31.122 C318.528,30.87 318.36,30.702 318.192,30.534 L318.192,14.616 L308.784,14.616 L308.784,18.312 L314.454,18.312 L314.454,30.198 C312.774,31.038 310.842,33.18 308.742,36.582 L311.682,39.312 C313.824,35.532 315.336,33.642 316.218,33.642 C316.722,33.642 317.226,33.978 317.772,34.692 C319.032,36.12 320.46,37.128 322.14,37.632 C323.862,38.052 326.046,38.304 328.734,38.346 C331.38,38.388 333.816,38.43 336.084,38.43 Z M323.442,2.436 L323.442,6.132 L343.098,6.132 L343.098,2.436 L323.442,2.436 Z M320.796,11.928 L320.796,15.708 L329.238,15.708 C326.088,23.31 323.652,27.384 321.972,27.888 L322.98,31.332 C330.288,30.576 336.252,29.652 340.788,28.518 C341.208,29.694 341.628,30.87 342.048,32.13 L345.618,31.206 C343.896,26.25 341.922,21.882 339.738,18.06 L336.504,19.11 C337.512,21 338.478,22.974 339.402,25.074 C336.168,25.914 332.22,26.586 327.516,27.174 C329.322,24.528 331.212,20.706 333.228,15.708 L346.164,15.708 L346.164,11.928 L320.796,11.928 Z" id="形状"></path>
            </g>
        </g>
    </g>
</svg>